<svg xmlns="http://www.w3.org/2000/svg" width="45" height="45" viewBox="0 0 45 45">
  <g id="Group_19419" data-name="Group 19419" transform="translate(-285 -9486)">
    <g id="Group_20205" data-name="Group 20205">
      <circle id="Ellipse_149" data-name="Ellipse 149" cx="22.5" cy="22.5" r="22.5" transform="translate(285 9486)" fill="#fff"/>
      <g id="facebook-logo" transform="translate(280.583 9499.548)">
        <path id="Path_4399" data-name="Path 4399" d="M31.392,0,29.071,0a4.077,4.077,0,0,0-4.294,4.406V6.438H22.442a.365.365,0,0,0-.365.365V9.746a.365.365,0,0,0,.365.365h2.334v7.427a.365.365,0,0,0,.365.365h3.046a.365.365,0,0,0,.365-.365V10.112h2.729a.365.365,0,0,0,.365-.365V6.8a.365.365,0,0,0-.365-.365h-2.73V4.716c0-.828.2-1.248,1.276-1.248h1.564a.365.365,0,0,0,.365-.365V.369A.365.365,0,0,0,31.392,0Z" fill="#282661"/>
      </g>
    </g>
  </g>
</svg>
