<svg xmlns="http://www.w3.org/2000/svg" width="45" height="45" viewBox="0 0 45 45">
  <g id="Group_20208" data-name="Group 20208" transform="translate(-285 -9486)">
    <circle id="Ellipse_149" data-name="Ellipse 149" cx="22.5" cy="22.5" r="22.5" transform="translate(285 9486)" fill="#fff"/>
    <g id="tik-tok" transform="translate(269.021 9499.183)">
      <path id="Path_27605" data-name="Path 27605" d="M45.843,4.5a4.138,4.138,0,0,1-2.5-.836A4.139,4.139,0,0,1,41.69.39H39.009V7.717l0,4.013a2.431,2.431,0,1,1-1.667-2.3V6.7a5.277,5.277,0,0,0-.773-.057A5.142,5.142,0,0,0,32.7,8.375a5.039,5.039,0,0,0,.227,6.948,5.232,5.232,0,0,0,.484.423,5.142,5.142,0,0,0,3.152,1.066,5.277,5.277,0,0,0,.773-.057A5.125,5.125,0,0,0,40.2,15.324a5.02,5.02,0,0,0,1.506-3.573l-.014-5.993a6.795,6.795,0,0,0,4.158,1.413V4.5h-.008Z" transform="translate(-0.157 -0.179)" fill="#282661"/>
    </g>
  </g>
</svg>
