<svg xmlns="http://www.w3.org/2000/svg" width="45" height="45" viewBox="0 0 45 45">
  <g id="Group_20206" data-name="Group 20206" transform="translate(-285 -9485.528)">
    <circle id="Ellipse_149" data-name="Ellipse 149" cx="22.5" cy="22.5" r="22.5" transform="translate(285 9485.528)" fill="#fff"/>
    <g id="twitter" transform="translate(299 9500.528)">
      <path id="Path_26595" data-name="Path 26595" d="M300.416,245.986l3.614,5.169h-1.483l-2.949-4.218h0l-.433-.619-3.445-4.928H297.2l2.78,3.977Z" transform="translate(-291.849 -238.23)" fill="#282661"/>
      <path id="Path_26596" data-name="Path 26596" d="M14.324,0H1.735A1.735,1.735,0,0,0,0,1.735V14.324A1.735,1.735,0,0,0,1.735,16.06H14.324a1.735,1.735,0,0,0,1.735-1.735V1.735A1.735,1.735,0,0,0,14.324,0ZM10.243,13.619,7.259,9.276,3.523,13.619H2.557L6.83,8.652,2.557,2.433H5.816L8.642,6.545,12.18,2.433h.966L9.071,7.169h0l4.432,6.45Z" transform="translate(0)" fill="#282661"/>
    </g>
  </g>
</svg>
