<svg xmlns="http://www.w3.org/2000/svg" width="2272.741" height="236.135" viewBox="0 0 2272.741 236.135">
  <g id="Group_20274" data-name="Group 20274" transform="translate(-211.41 -83.286)">
    <g id="Group_20299" data-name="Group 20299">
      <path id="Path_27607" data-name="Path 27607" d="M941.852,204.314H938.7v-2.9h-1.48V203.3h-1.853v-2.776H932.03v-2.905h-6.486v-8.333L921.467,185H905.159V170.982h-1.667v-1.389H888.3V170.6h-1.482v3.282h-5.745v25.252h-3.151v-8.46h-3.335V180.7h-7.412V167.825h-4.447v-3.409H858.09V154.191h-1.482v-5.682h-1.853v-4.546h-.927l-1.3-10.226h-.741l-1.3,10.478H849.01v2.905c-9.451,3.409-13.157,6.944-13.157,6.944v27.144H832.7v9.344h-2.222V179.819h-.927v-8.585h-5.559v8.585h-6.484v6.819h-8.155v17.8h-2.224v-2.273h-1.853V165.174H794.342V153.18l-2.594-2.4v-2.9l-3.522-2.275V135.5h-1.482v10.1l-3.151,2.023v-5.809h-1.3v-3.787h-1.728V125.57H758.577v12.459H756.6v3.787h-1.546v38.762h-4.818v-1.389h-2.224v1.768h-8.526v12.5H735.6V174.012h-3.892v-2.4h-3.335V149.771h3.335v-3.537h-7.6v-4.923h-4.447V139.29H705.947v1.768H687.973v36.49h-2.967v26.766h-5v-32.7h-8.648V119.006h-.616v-.61h-.65V117.7h-.925v-3.979h-4.449V117.7h-9.078v.694h-2.687v.61h-2.594l-15.567,10.1v20.206l-33.6-5.731v27.947h-1.978v-2.442H598.1v-5.05h-6.116v5.05h-3.52v2.442h-2.965V153.812h1.667V152.3h-3.706V126.664h-.741v-.755H574v.755h-6.116V152.3h-3.026V139.038h-.741v-.589h-3.212v-1.683H543.86v1.683h-2.965v.589h-.741V152.3H536.2v1.516h1.853v27.9h-2.594V168.582H521.991V134.745h-2.673V117.308h-5.874V104.262h-7.426l-4.437-6.637h-.107l-2.18-22.788h.147v-.955h-3.02l-1.651-31.855h-.612l-1.651,31.855H489.45v.955h.252l-2.18,22.788h-.034l-4.437,6.637H476.2v13.046h-6.159v17.438h-2.673v44.836h-1.782l-6.873-45.452h-2.156V111.321a16.342,16.342,0,0,1-.579-1.869A39.356,39.356,0,0,1,455.239,96h-31.57v38.131h-1.617l-6.873,22.39H402.825V131.6h-.741v-3.369h-9.39V131.6h-6.425v24.915h-3.706v.925h-3.952v1.431h-1.978v18.686h-6.3v-2.146H358.659v2.146H356.99v10.606h-6.3V228.4L469,228.428v-.109l472.664.109Z" transform="translate(344.299 41.26)" fill="#e6edff"/>
      <path id="Path_27608" data-name="Path 27608" d="M610.426,180.056c.464-7.9.894-19.685-.343-23.678-1.922-6.207-4.879-16.272-4.879-16.272l-20.48,4.986s-.789.422-1.8,3.151.406,20.365.406,20.365l-1.506-.141-1.466-10.676-1.484-.472-.589-2.679-6.817-.753-1.558-9.312-2.285-.753-20.708,4.328-1.229-16.274-2.027-.377-.608-5.174-16.106-1.881-4.352.753-.525,4.891-1.871.1L517.693,176.4l-4.322-.1-.254-17.4-7.307.283-5.523,5.832-.454-8.183-1.916-.377-2.449-24.362-7.335-.379-.018,18.25-2.061-1.881-8.809-.753-2.479-3.952-4.009-.281-.1,24.269-2.416.188-1.04-.47-3.908-.377-.5-23.611-3.6-.658s-.67-5.832-1.046-6.3-1.413-3.2-1.966-3.2-3.516,6.019-3.637,7.055-.345,6.772-.345,6.772l-2.249-.375-2.388.47-5.038-1.788.105-24.269-5.492-.753-1.134-9.5-18.676-2.164-.721,1.694-6.831.281-.48,5.363-1.871.1-.353,5.549-2.13.846h-3.167v6.516h-8.306l-.83,14.538-7.519-.285L383.9,97.662H371.109l.418,58.72-7.16.285s-.038,15.258-.085,23.389H350.659V161.447H318.673v18.609h-4.154c.034-16.316.24-61.586.24-61.586l-11.685.571-1.546,49.315-12.436.569s.141,6.149.208,11.132H270.684V136.235h-9.966v43.821h-8.754l-.462-36.5-9.758-.856-.03-35.062-9.641-4.56-17.329.571.127,31.924-9.838,1.71.073,21.665-15.824.571s-.19,12.588-.331,20.537h-.343l-1.53-28.228-.925-.234-.133-1.136-.941-.055-.17-.721-6.508-.034-.244,1.35-1.9.063-1.786-63.934-2.7-.222-.236-2.564-1.476-.03-.25-5-.779.1-3.006,4.031-.468-1.036-.731.222-.406,1.518-12.751-.733-.147-4.487-.715.046-3.508,6.879s-5.535,6.076-5.626,6.425-2.265,84.039-2.265,84.039l-5.3.335-2.658,1.859-.137,1.544h-1.09c.369-12.987,1.254-45.06,1.033-45.216a36.995,36.995,0,0,0-4.481-.208l.083-2.812-1.181-.042-.273-.876-2.273.25-.264,1.881-1.027.206-.252,1.468-2.12.2-.242.995-.573.115-.355,3.21-.9.123L116,180.056h-8.218v32.7h507.7v-32.7Z" transform="translate(105.822 77.492)" fill="#ebf1ff" fill-rule="evenodd"/>
    </g>
    <g id="Group_20300" data-name="Group 20300" transform="translate(1198 23.168)">
      <path id="Path_27607-2" data-name="Path 27607" d="M941.852,204.314H938.7v-2.9h-1.48V203.3h-1.853v-2.776H932.03v-2.905h-6.486v-8.333L921.467,185H905.159V170.982h-1.667v-1.389H888.3V170.6h-1.482v3.282h-5.745v25.252h-3.151v-8.46h-3.335V180.7h-7.412V167.825h-4.447v-3.409H858.09V154.191h-1.482v-5.682h-1.853v-4.546h-.927l-1.3-10.226h-.741l-1.3,10.478H849.01v2.905c-9.451,3.409-13.157,6.944-13.157,6.944v27.144H832.7v9.344h-2.222V179.819h-.927v-8.585h-5.559v8.585h-6.484v6.819h-8.155v17.8h-2.224v-2.273h-1.853V165.174H794.342V153.18l-2.594-2.4v-2.9l-3.522-2.275V135.5h-1.482v10.1l-3.151,2.023v-5.809h-1.3v-3.787h-1.728V125.57H758.577v12.459H756.6v3.787h-1.546v38.762h-4.818v-1.389h-2.224v1.768h-8.526v12.5H735.6V174.012h-3.892v-2.4h-3.335V149.771h3.335v-3.537h-7.6v-4.923h-4.447V139.29H705.947v1.768H687.973v36.49h-2.967v26.766h-5v-32.7h-8.648V119.006h-.616v-.61h-.65V117.7h-.925v-3.979h-4.449V117.7h-9.078v.694h-2.687v.61h-2.594l-15.567,10.1v20.206l-33.6-5.731v27.947h-1.978v-2.442H598.1v-5.05h-6.116v5.05h-3.52v2.442h-2.965V153.812h1.667V152.3h-3.706V126.664h-.741v-.755H574v.755h-6.116V152.3h-3.026V139.038h-.741v-.589h-3.212v-1.683H543.86v1.683h-2.965v.589h-.741V152.3H536.2v1.516h1.853v27.9h-2.594V168.582H521.991V134.745h-2.673V117.308h-5.874V104.262h-7.426l-4.437-6.637h-.107l-2.18-22.788h.147v-.955h-3.02l-1.651-31.855h-.612l-1.651,31.855H489.45v.955h.252l-2.18,22.788h-.034l-4.437,6.637H476.2v13.046h-6.159v17.438h-2.673v44.836h-1.782l-6.873-45.452h-2.156V111.321a16.342,16.342,0,0,1-.579-1.869A39.356,39.356,0,0,1,455.239,96h-31.57v38.131h-1.617l-6.873,22.39H402.825V131.6h-.741v-3.369h-9.39V131.6h-6.425v24.915h-3.706v.925h-3.952v1.431h-1.978v18.686h-6.3v-2.146H358.659v2.146H356.99v10.606h-6.3V228.4L469,228.428v-.109l472.664.109Z" transform="translate(344.299 41.26)" fill="#e6edff"/>
      <path id="Path_27608-2" data-name="Path 27608" d="M610.426,180.056c.464-7.9.894-19.685-.343-23.678-1.922-6.207-4.879-16.272-4.879-16.272l-20.48,4.986s-.789.422-1.8,3.151.406,20.365.406,20.365l-1.506-.141-1.466-10.676-1.484-.472-.589-2.679-6.817-.753-1.558-9.312-2.285-.753-20.708,4.328-1.229-16.274-2.027-.377-.608-5.174-16.106-1.881-4.352.753-.525,4.891-1.871.1L517.693,176.4l-4.322-.1-.254-17.4-7.307.283-5.523,5.832-.454-8.183-1.916-.377-2.449-24.362-7.335-.379-.018,18.25-2.061-1.881-8.809-.753-2.479-3.952-4.009-.281-.1,24.269-2.416.188-1.04-.47-3.908-.377-.5-23.611-3.6-.658s-.67-5.832-1.046-6.3-1.413-3.2-1.966-3.2-3.516,6.019-3.637,7.055-.345,6.772-.345,6.772l-2.249-.375-2.388.47-5.038-1.788.105-24.269-5.492-.753-1.134-9.5-18.676-2.164-.721,1.694-6.831.281-.48,5.363-1.871.1-.353,5.549-2.13.846h-3.167v6.516h-8.306l-.83,14.538-7.519-.285L383.9,97.662H371.109l.418,58.72-7.16.285s-.038,15.258-.085,23.389H350.659V161.447H318.673v18.609h-4.154c.034-16.316.24-61.586.24-61.586l-11.685.571-1.546,49.315-12.436.569s.141,6.149.208,11.132H270.684V136.235h-9.966v43.821h-8.754l-.462-36.5-9.758-.856-.03-35.062-9.641-4.56-17.329.571.127,31.924-9.838,1.71.073,21.665-15.824.571s-.19,12.588-.331,20.537h-.343l-1.53-28.228-.925-.234-.133-1.136-.941-.055-.17-.721-6.508-.034-.244,1.35-1.9.063-1.786-63.934-2.7-.222-.236-2.564-1.476-.03-.25-5-.779.1-3.006,4.031-.468-1.036-.731.222-.406,1.518-12.751-.733-.147-4.487-.715.046-3.508,6.879s-5.535,6.076-5.626,6.425-2.265,84.039-2.265,84.039l-5.3.335-2.658,1.859-.137,1.544h-1.09c.369-12.987,1.254-45.06,1.033-45.216a36.995,36.995,0,0,0-4.481-.208l.083-2.812-1.181-.042-.273-.876-2.273.25-.264,1.881-1.027.206-.252,1.468-2.12.2-.242.995-.573.115-.355,3.21-.9.123L116,180.056h-8.218v32.7h507.7v-32.7Z" transform="translate(105.822 77.492)" fill="#e3ebff" fill-rule="evenodd"/>
    </g>
    <path id="Path_27609" data-name="Path 27609" d="M227.4,174.439l.006.036-.006-.036M106.677,216.1V248.66H1205.594v-61.6l-32.541-.246-3.195-37.951-29.842.289-.858-30.062-16.774.238-.4-11.169-38.341-7.961-34.749,3.922,2.4,49.428-4.392.121-1.2-8.2-37.144-.83.4,9.15-5.391.355.2,3.327-3.993.119.2-18.417L974.21,137.75l-11.583,1.189.3,15.565-7.287.357-.7,3.03-4.693.3-.7-8.02-36.645.238-.3-7.725-5.892-.176-.8-2.2-5.192-.3-7.689.535.2,1.665-7.188-.178-11.883.892v4.812l-7.289.3-.8-21.387-23.363-.711-11.685,3.86-12.781.059-3.793.832-24.564-.238-2.2,1.011.1-4.457a44.964,44.964,0,0,0-6.99-.713c-3.195,0-14.778.773-14.778.773l-.5,4.1-2,.6.6,20.2-3-.238-1.2-1.9-6.99-.119-4.193,2.557-.1,1.839-5.791-.057-2-11.764-.9,11.526-1.3.059-6.99,4.4-.9-6.831-3.343-.091-.252-.86h-4.443l-.4-4.069-4.394-.3-.6,2.555-1.7.178-.5,2.555-2.994.178-.5,7.723h-3.195l-.1,12.418h-2.893l-.6-26.706-8.088-.03-.549-1.99-1.1-.446-17.424.03-.4-23.526-1.4-1.9-6.99-2.557L650.744,115l-2.6,2.14-.1,24.18H635.367l-.2,6.712h-7.339l-.25-6.088-1.149-.327-.5-1.635-5.39-.059-.151,1.486-1.147.087s-.05,2.574-.05,2.943-10.486.3-10.486.3l-.6,8.972-4.992.119-.125,4.96-1.048-.046-.426,3.565-3.27.073-.549.981-3.421.03-.05-.951s-3.845.091-4.094.151-.5-1.694-.5-1.694l-2.6-.238-.25-7.634-4.594-.713-18.072.416-.4-11.229-1.3-.535-.1-7.961-.8-.771.1-4.754-3.7-1.427s.5-9.921-.6-11.526-2.2-1.306-2.2-1.306a3.669,3.669,0,0,1-.2-1.427,12.452,12.452,0,0,0-1.1-3.327,19.109,19.109,0,0,0-.2-2.612,4.123,4.123,0,0,0-1.4-2.2s-.3-.949-.7-2.317-2.646-2.346-2.646-2.346a4.136,4.136,0,0,0-.2-1.871,4.756,4.756,0,0,0-1.649-1.99,6.393,6.393,0,0,0-.151-1.962,8.454,8.454,0,0,0-1.447-2.406l-2.2-18.684s-.4,12.834-.7,14.675a18.449,18.449,0,0,0-.1,3.979s-.349.178-.8,1.07a8.576,8.576,0,0,0-.4,2.941,2.346,2.346,0,0,0-.949,1.128,16.524,16.524,0,0,0-.45,3.032,5.029,5.029,0,0,0-2.1,1.484,6.341,6.341,0,0,0-.547,3.179,8.54,8.54,0,0,0-1.251.951c-.648.593-.45,3.208-.45,3.208s-.149.117-.747.652-.2,3.357-.5,3.535-.4,2.376-.4,2.376a6.956,6.956,0,0,0-.9.713c-.2.238.2,11.7.2,11.7l-5.392.565.648,23.5-5.84-.059-.2,6.09-1.748.03.075,8.69h-1l-.426-19.992-2.7-1.455v-2.883l-2-.89-.9-2.792-6.389.059-.4,3.03-6.69.414-7.188-.059-1.7.656L477,141.513l-.2.474-7.687-.327-4.893,1.159.05,3.21-2.445-.061L439.6,147.158v23.111l-1.4-.178-.5-13.7h-6.69l-.25-3.771-11.883-.208-9.035.505,0-8.258-.8-.416L409,138.424l-2.148-.357-.45-3.773-2.37-.311-.8-1.635-1.572-.711-.226-5.852-.575-.579v-1.441l-.8-.238-.9-9.951-.349,10.1-1,.268-.1,1.187-.6.595-.3,6.149-1.8.654-.2,1.187-2.6.416,0,4.041-2.5.178.3,19.784-4.094-.119v10.1l-4.394.178-12.281.832-.1-12.594-5.39.059-.3-8.912-10.184-.238-23.765,1.722-.1,8.02-13.181.416-.3,1.249-3.3.119-.2-3.922-15.478-.3-7.19.236-.1,3.981-13.282,1.011.1,13.248-6.689.357-.1,1.841-1.6.238-.1,4.516-3.393.355-.6,1.189h-6.191l-4.592.654-.4,1.663-6.79-.206-.325-5.2-3.147-.089-.549-10.218-14.453-.044s-.184,5.65-.155,6.157c-.1-.5-1.468-6.011-1.468-6.011l-3.545-.028-1.548,5.583-4.693.178v1.486l-2.295-.059.4-7.069-1.1-.089-.1-5.349-2.947.149-.1-1.692h-1.548l-.25-3.3-11.732.089-.2,3.268-3.3.3.1,1.9-1.9.178-.1,2.792-5.392.418v1.99l-1.5.206-.349,25.636-4.594-.119.3-11.377-4-.208-.3-1.306h-5.44l-.151,1.217h-6.191l-.2-1.811-7.489.119-.7,23.23-4.891-.119-.5-3.862-6.589-.474-.2-2.854-20.143.3V216.1Z" transform="translate(104.733 70.761)" fill="#e2e8fc" fill-rule="evenodd"/>
    <path id="Path_27641" data-name="Path 27641" d="M1084.868,174.439l-.006.036.006-.036M1205.594,216.1V248.66H106.677v-61.6l32.541-.246,3.195-37.951,29.842.289.858-30.062,16.774.238.4-11.169,38.341-7.961,34.749,3.922-2.4,49.427,4.392.121,1.2-8.2,37.144-.83-.4,9.15,5.391.355-.2,3.327,3.993.119-.2-18.417,25.761-1.427,11.583,1.189-.3,15.565,7.287.357.7,3.03,4.693.3.7-8.02,36.645.238.3-7.725,5.892-.176.8-2.2,5.192-.3,7.689.535-.2,1.665,7.188-.178,11.883.892v4.812l7.289.3.8-21.387,23.363-.711,11.685,3.86,12.781.059,3.793.832,24.564-.238,2.2,1.011-.1-4.457a44.964,44.964,0,0,1,6.99-.713c3.195,0,14.778.773,14.778.773l.5,4.1,2,.6-.6,20.2,3-.238,1.2-1.9,6.99-.119,4.193,2.557.1,1.839,5.791-.057,2-11.764.9,11.526,1.3.059,6.99,4.4.9-6.831,3.343-.091.252-.86h4.443l.4-4.069,4.394-.3.6,2.555,1.7.178.5,2.555,2.994.178.5,7.723h3.195l.1,12.418h2.893l.6-26.706,8.088-.03.549-1.99,1.1-.446,17.424.03.4-23.526,1.4-1.9,6.99-2.556,18.173.416,2.6,2.14.1,24.18H676.9l.2,6.712h7.339l.25-6.088,1.149-.327.5-1.635,5.39-.059.151,1.486,1.147.087s.05,2.574.05,2.943,10.486.3,10.486.3l.6,8.972,4.992.119.125,4.96,1.048-.046.426,3.565,3.27.073.549.981,3.42.03.05-.951s3.845.091,4.094.151.5-1.694.5-1.694l2.6-.238.25-7.634,4.594-.713,18.072.416.4-11.229,1.3-.535.1-7.961.8-.771-.1-4.754,3.7-1.427s-.5-9.921.6-11.526,2.2-1.306,2.2-1.306a3.669,3.669,0,0,0,.2-1.427,12.452,12.452,0,0,1,1.1-3.327,19.109,19.109,0,0,1,.2-2.612,4.123,4.123,0,0,1,1.4-2.2s.3-.949.7-2.317,2.646-2.346,2.646-2.346a4.136,4.136,0,0,1,.2-1.871,4.756,4.756,0,0,1,1.649-1.99,6.393,6.393,0,0,1,.151-1.962,8.454,8.454,0,0,1,1.447-2.406l2.2-18.684s.4,12.834.7,14.675a18.449,18.449,0,0,1,.1,3.979s.349.178.8,1.07a8.576,8.576,0,0,1,.4,2.941,2.346,2.346,0,0,1,.949,1.128,16.524,16.524,0,0,1,.45,3.032,5.029,5.029,0,0,1,2.1,1.484,6.341,6.341,0,0,1,.547,3.179,8.54,8.54,0,0,1,1.251.951c.648.593.45,3.208.45,3.208s.149.117.747.652.2,3.357.5,3.535.4,2.376.4,2.376a6.956,6.956,0,0,1,.9.713c.2.238-.2,11.7-.2,11.7l5.392.565-.648,23.5,5.84-.059.2,6.09,1.748.03-.075,8.69h1l.426-19.992,2.7-1.455v-2.883l2-.89.9-2.792,6.389.059.4,3.03,6.691.414,7.188-.059,1.7.656,14.328-.089.2.474,7.687-.327,4.893,1.159-.05,3.21,2.445-.061,22.218,1.189v23.111l1.4-.178.5-13.7h6.69l.25-3.771,11.883-.208,9.035.505,0-8.258.8-.416.049-5.822,2.148-.357.45-3.773,2.37-.311.8-1.635,1.572-.711.226-5.852.575-.579v-1.441l.8-.238.9-9.95.349,10.1,1,.268.1,1.187.6.595.3,6.149,1.8.654.2,1.187,2.6.416,0,4.041,2.5.178-.3,19.784,4.094-.119v10.1l4.394.178,12.281.832.1-12.594,5.39.059.3-8.912L959,147.441l23.766,1.722.1,8.02,13.181.416.3,1.249,3.3.119.2-3.922,15.478-.3,7.19.236.1,3.981,13.282,1.011-.1,13.248,6.689.357.1,1.841,1.6.238.1,4.516,3.393.355.6,1.189h6.191l4.592.654.4,1.663,6.79-.206.325-5.2,3.147-.089.549-10.218,14.453-.044s.184,5.65.155,6.157c.1-.5,1.469-6.011,1.469-6.011l3.545-.028,1.548,5.583,4.693.178v1.486l2.295-.059-.4-7.069,1.1-.089.1-5.349,2.947.149.1-1.692h1.548l.25-3.3,11.732.089.2,3.268,3.3.3-.1,1.9,1.9.178.1,2.792,5.392.418v1.99l1.5.206.349,25.636,4.594-.119-.3-11.377,4-.208.3-1.306h5.44l.151,1.217h6.191l.2-1.811,7.489.119.7,23.23,4.891-.119.5-3.862,6.589-.474.2-2.854,20.143.3V216.1Z" transform="translate(930.906 70.761)" fill="#e2e8fc" fill-rule="evenodd"/>
  </g>
</svg>
