<svg xmlns="http://www.w3.org/2000/svg" width="61.531" height="66.545" viewBox="0 0 61.531 66.545">
  <path id="XMLID_173_" d="M77.033,10.939a13.308,13.308,0,0,0-3.2-6.506l-.01-.011a12.359,12.359,0,0,0-4.118-3.1l-.043-.019A13.354,13.354,0,0,0,55.745,2.785l-.016.012A15.683,15.683,0,0,0,52.2,6.925h0l-.022.038a13.373,13.373,0,0,0-1.551,7.776,1.292,1.292,0,0,0,.686,1.011,4.79,4.79,0,0,0,.758.317,12.23,12.23,0,0,0,6.2,7.159,12.063,12.063,0,0,0-3.31,2.49,1.292,1.292,0,1,0,1.882,1.77,9.553,9.553,0,0,1,1.513-1.306,5.56,5.56,0,0,0,5.091,3.839h.193a5.53,5.53,0,0,0,5.046-4.094,9.543,9.543,0,0,1,4.474,8.017v13.42L61.409,54.986a1.292,1.292,0,1,0,1.406,2.167l12.34-8.007a1.292,1.292,0,0,0,.589-1.084V33.941a11.979,11.979,0,0,0-6.591-10.723,12.292,12.292,0,0,0,6.791-10.244,4.838,4.838,0,0,0,.935-1.156A1.289,1.289,0,0,0,77.033,10.939ZM63.64,27.434h-.193A3.126,3.126,0,0,1,60.6,24.162c0-.022,0-.044,0-.066a12.278,12.278,0,0,0,5.8.106C66.293,25.949,65.049,27.434,63.64,27.434Zm.077-5.52a9.661,9.661,0,0,1-8.863-5.8,4.838,4.838,0,0,0,3.456-3.9,18.348,18.348,0,0,0,2.336.149,17.585,17.585,0,0,0,7.427-1.606,4.833,4.833,0,0,0,4.633,3.477,4.762,4.762,0,0,0,.476-.024A9.7,9.7,0,0,1,63.717,21.914Zm8.988-10.267a2.243,2.243,0,0,1-2.24-2.24V8.689a1.292,1.292,0,0,0-1.979-1.094,14.7,14.7,0,0,1-7.841,2.181,15.592,15.592,0,0,1-3.3-.35,1.292,1.292,0,0,0-1.566,1.263v.784a2.242,2.242,0,0,1-2.24,2.24,2.267,2.267,0,0,1-.251-.014l-.058-.007-.086-.014q-.005-.166-.005-.331a10.777,10.777,0,0,1,1.3-5.133l.01-.017a13.245,13.245,0,0,1,2.865-3.361l.009-.007A10.771,10.771,0,0,1,68.55,3.636l.111.051a9.756,9.756,0,0,1,3.217,2.432l.023.026a10.735,10.735,0,0,1,2.483,4.741A2.246,2.246,0,0,1,72.705,11.648ZM52.714,44.7a9.9,9.9,0,0,0,3.793-13.085,1.308,1.308,0,0,0-.087-.163,9.9,9.9,0,0,0-17.428,0,1.309,1.309,0,0,0-.084.159A9.9,9.9,0,0,0,42.7,44.7a10.908,10.908,0,0,0-5.918,9.7v4.712a1.292,1.292,0,0,0,.6,1.09l9.635,6.134a1.292,1.292,0,0,0,1.384,0l9.657-6.1a1.292,1.292,0,0,0,.6-1.1L58.633,54.4A10.948,10.948,0,0,0,52.714,44.7ZM47.706,28.841a7.307,7.307,0,0,1,5.608,2.62,21.094,21.094,0,0,1-11.215,0A7.308,7.308,0,0,1,47.706,28.841Zm-7.32,7.32a7.288,7.288,0,0,1,.4-2.4,23.514,23.514,0,0,0,13.834,0,7.32,7.32,0,1,1-14.237,2.4ZM50,45.8a2.352,2.352,0,0,1-2.2,2.048h-.157a2.446,2.446,0,0,1-2.316-2.07A9.945,9.945,0,0,0,50,45.8ZM47.709,63.723,39.364,58.41v-4a8.324,8.324,0,0,1,3.759-6.964,5.069,5.069,0,0,0,4.516,2.986H47.8A4.881,4.881,0,0,0,52.214,47.4a8.373,8.373,0,0,1,3.835,7.016l.019,4.028Zm-9.28-34.679a1.292,1.292,0,0,0-.415-1.779,12.035,12.035,0,0,0-1.22-.664,12.2,12.2,0,0,0,4.13-3.448A4.5,4.5,0,0,0,46.9,18.9V15.687A15.686,15.686,0,0,0,31.838.013h0C31.484,0,31.156,0,30.833,0a15.685,15.685,0,0,0-15.31,15.683V18.9A4.5,4.5,0,0,0,21.5,23.154a12.187,12.187,0,0,0,4.622,3.685,11.981,11.981,0,0,0-6.452,10.649V48.063a1.292,1.292,0,0,0,.589,1.084l11.721,7.605a1.292,1.292,0,1,0,1.406-2.167L22.252,47.362V37.488a9.388,9.388,0,0,1,3.724-7.505A5.726,5.726,0,0,0,31.1,34.047h.193c2.466,0,4.434-2.232,5.128-4.726q.116.067.229.138A1.292,1.292,0,0,0,38.429,29.044ZM23.221,10.992a9.26,9.26,0,0,0-1.277,4.7V18.9a1.916,1.916,0,0,1-.736,1.51,1.278,1.278,0,0,0-.11.08,1.918,1.918,0,0,1-2.991-1.59V15.687A13.028,13.028,0,0,1,30.9,2.587c.268-.007.543,0,.842.008A13.063,13.063,0,0,1,44.315,15.687V18.9a1.918,1.918,0,0,1-2.992,1.59,1.3,1.3,0,0,0-.109-.08,1.917,1.917,0,0,1-.736-1.51V15.687a9.315,9.315,0,0,0-7.9-9.167A1.292,1.292,0,0,0,31.1,7.7a13.084,13.084,0,0,1-.488,2.658H24.334A1.292,1.292,0,0,0,23.221,10.992Zm8.072,20.471H31.1c-1.461,0-2.894-1.773-2.894-3.58a1.291,1.291,0,0,0-.042-.326A12.427,12.427,0,0,0,34.1,27.6C34.013,29.475,32.591,31.463,31.293,31.463Zm-.082-6.11a9.61,9.61,0,0,1-7.616-3.713,4.481,4.481,0,0,0,.933-2.742V15.687a6.688,6.688,0,0,1,.59-2.748h6.425a1.292,1.292,0,0,0,1.212-.844A15.583,15.583,0,0,0,33.483,9.4a6.729,6.729,0,0,1,4.41,6.285V18.9a4.48,4.48,0,0,0,.933,2.742A9.609,9.609,0,0,1,31.211,25.353Z" transform="translate(-15.523)" fill="#2d3d76"/>
</svg>
