<svg xmlns="http://www.w3.org/2000/svg" width="68.065" height="54.168" viewBox="0 0 68.065 54.168">
  <g id="couple" transform="translate(-5.256 -29.245)">
    <path id="Path_16" data-name="Path 16" d="M33.844,66.7l-4.855-.937c0-.1.015-.2.015-.294V62.453a12.65,12.65,0,0,0,5.909-7.563,4.482,4.482,0,0,0,2.066-8.1l.147-2.222a14.378,14.378,0,1,0-28.694,0l.147,2.222a4.482,4.482,0,0,0,2.066,8.1,12.65,12.65,0,0,0,5.909,7.563v3.019c0,.1.01.2.015.294l-4.856.937a7.977,7.977,0,0,0-6.456,7.821V82.4a1.014,1.014,0,0,0,1.01,1.014H39.287A1.014,1.014,0,0,0,40.3,82.4V74.524A7.977,7.977,0,0,0,33.844,66.7Zm1.474-14c.038-.395.058-.794.058-1.2V48.2a2.457,2.457,0,0,1-.058,4.506ZM10.453,44.438a12.35,12.35,0,1,1,24.647,0L35,46q-.211-.03-.428-.04a13.941,13.941,0,0,1-5.237-3.874,1.016,1.016,0,0,0-1.28-.247c-7.693,4.276-16.75,4.113-16.839,4.113a3.831,3.831,0,0,0-.659.05Zm-1.725,6A2.462,2.462,0,0,1,10.177,48.2v3.307c0,.406.021.8.058,1.2A2.466,2.466,0,0,1,8.728,50.437ZM12.2,51.506v-3.54a39.109,39.109,0,0,0,16.115-3.972,15.63,15.63,0,0,0,5.03,3.671v3.841a10.572,10.572,0,0,1-21.145,0Zm10.572,12.6a12.535,12.535,0,0,0,4.2-.722v2.086a4.2,4.2,0,0,1-8.4,0V63.384a12.535,12.535,0,0,0,4.2.722Zm15.5,17.28H7.28V74.524a5.947,5.947,0,0,1,4.813-5.831l4.893-.944a6.219,6.219,0,0,0,11.58,0l4.893.944a5.947,5.947,0,0,1,4.813,5.831Z" fill="#2d3d76"/>
    <path id="Path_17" data-name="Path 17" d="M22.588,113.25H19.112a1.014,1.014,0,0,0,0,2.028h3.476a1.014,1.014,0,0,0,0-2.028Z" transform="translate(-5.403 -35.34)" fill="#2d3d76"/>
    <path id="Path_18" data-name="Path 18" d="M94.128,72.34l-1.94-.375,2.238-.2A4.5,4.5,0,0,0,98.518,67.2l-.29-14.478a13.96,13.96,0,1,0-27.919,0L70.022,67.2a4.509,4.509,0,0,0,4.093,4.563l2.238.2-1.942.375a7.208,7.208,0,0,0-5.832,7.068v7a1.014,1.014,0,0,0,1.014,1.014H98.947A1.014,1.014,0,0,0,99.961,86.4v-7a7.208,7.208,0,0,0-5.832-7.066Zm-9.858-4.113a9.3,9.3,0,0,1-9.285-9.282V55.6a14.036,14.036,0,0,0,4.38-3.2,34.885,34.885,0,0,0,14.188,3.5v3.038a9.3,9.3,0,0,1-9.283,9.283Zm-3.618,1.425a11.135,11.135,0,0,0,7.241,0v1.708a3.621,3.621,0,1,1-7.241,0Zm-8.6-2.408.29-14.476a11.932,11.932,0,1,1,23.865,0l.287,14.479a2.466,2.466,0,0,1-2.244,2.5l-4.325.383v-1.4a11.309,11.309,0,0,0,5.662-9.784V54.9a1.014,1.014,0,0,0-.306-.726,1,1,0,0,0-.733-.29,33.039,33.039,0,0,1-14.909-3.64,1.015,1.015,0,0,0-1.28.247,12.151,12.151,0,0,1-4.7,3.443,1.014,1.014,0,0,0-.7.965v4.044a11.309,11.309,0,0,0,5.666,9.786v1.4l-4.33-.383A2.475,2.475,0,0,1,72.049,67.243ZM97.933,85.39H70.607V79.406A5.178,5.178,0,0,1,74.8,74.33l4.256-.82a5.645,5.645,0,0,0,10.441,0l4.25.82a5.178,5.178,0,0,1,4.19,5.076Z" transform="translate(-26.639 -4.005)" fill="#2d3d76"/>
  </g>
</svg>
