<svg xmlns="http://www.w3.org/2000/svg" width="62.565" height="62.565" viewBox="0 0 62.565 62.565">
  <g id="identity-card" transform="translate(-1.85 -1.85)" style="mix-blend-mode: normal;isolation: isolate">
    <path id="Path_19" data-name="Path 19" d="M78.013,350.2A10.7,10.7,0,0,0,67.3,360.447a1.822,1.822,0,0,0,1.728,1.8H87a1.672,1.672,0,0,0,1.728-1.8A10.7,10.7,0,0,0,78.013,350.2Zm-6.937,8.592a7.27,7.27,0,0,1,13.9,0Z" transform="translate(-57.296 -305.522)" fill="#2d3d76" stroke="#fcfdff" stroke-width="0.3"/>
    <path id="Path_20" data-name="Path 20" d="M110.741,245.081a6.141,6.141,0,1,0-6.141-6.141A6.152,6.152,0,0,0,110.741,245.081Zm0-8.825a2.684,2.684,0,1,1-2.684,2.684A2.683,2.683,0,0,1,110.741,236.256Z" transform="translate(-90.024 -202.511)" fill="#2d3d76" stroke="#fcfdff" stroke-width="0.3"/>
    <path id="Path_21" data-name="Path 21" d="M58.529,16.537H44.09V13.828A1.726,1.726,0,0,0,42.362,12.1H39.555V3.728A1.726,1.726,0,0,0,37.827,2H28.45a1.726,1.726,0,0,0-1.728,1.728V12.1H23.915a1.726,1.726,0,0,0-1.728,1.728v2.709H7.736A5.744,5.744,0,0,0,2,22.273V58.529a5.744,5.744,0,0,0,5.736,5.736H58.529a5.744,5.744,0,0,0,5.736-5.736V22.273A5.744,5.744,0,0,0,58.529,16.537ZM30.166,5.456h5.92V12.1h-5.92Zm-4.535,10.1h14.99v5.418H25.631ZM60.808,58.529a2.283,2.283,0,0,1-2.28,2.28H7.736a2.283,2.283,0,0,1-2.28-2.28V22.273a2.283,2.283,0,0,1,2.28-2.28H22.175v2.721A1.726,1.726,0,0,0,23.9,24.442H42.362a1.726,1.726,0,0,0,1.728-1.728V20.005H58.529a2.283,2.283,0,0,1,2.28,2.28Z" transform="translate(0 0)" fill="#2d3d76" stroke="#fcfdff" stroke-width="0.3"/>
    <path id="Path_22" data-name="Path 22" d="M291.6,256H273.928a1.728,1.728,0,1,0,0,3.456H291.6a1.728,1.728,0,0,0,0-3.456Z" transform="translate(-237.082 -222.868)" fill="#2d3d76" stroke="#fcfdff" stroke-width="0.3"/>
    <path id="Path_23" data-name="Path 23" d="M291.6,338.2H273.928a1.728,1.728,0,1,0,0,3.456H291.6a1.728,1.728,0,0,0,0-3.456Z" transform="translate(-237.082 -294.992)" fill="#2d3d76" stroke="#fcfdff" stroke-width="0.3"/>
    <path id="Path_24" data-name="Path 24" d="M291.6,420.3H273.928a1.728,1.728,0,1,0,0,3.456H291.6a1.728,1.728,0,0,0,0-3.456Z" transform="translate(-237.082 -367.03)" fill="#2d3d76" stroke="#fcfdff" stroke-width="0.3"/>
  </g>
</svg>
