<svg xmlns="http://www.w3.org/2000/svg" width="94.725" height="58.559" viewBox="0 0 94.725 58.559">
  <g id="logo" transform="translate(-25.458 -175.105)">
    <path id="Path_7" data-name="Path 7" d="M823.5,382.764l-.106,58.429a.064.064,0,0,1-.065.065l-2.508,0a.065.065,0,0,1-.065-.065v-55.8a.064.064,0,0,1,.018-.046l2.614-2.622a.065.065,0,0,1,.111.046Z" transform="translate(-731.182 -207.594)" fill="#2d3d76"/>
    <path id="Path_8" data-name="Path 8" d="M394.769,391.109l.024,54.626a.028.028,0,0,1-.027.028l-2.538.048a.028.028,0,0,1-.029-.028l0-57.189a.028.028,0,0,1,.047-.02l2.51,2.515A.027.027,0,0,1,394.769,391.109Z" transform="translate(-338.537 -212.97)" fill="#2d3d76"/>
    <path id="Path_9" data-name="Path 9" d="M444.126,479.2l0-14.231q0-.073.051-.021l1.207,1.209a.1.1,0,0,0,.156,0L447,464.7a.044.044,0,0,1,.047-.009.042.042,0,0,1,.026.039v14.475a.034.034,0,0,0,.033.034c.337.015.682.049,1.014.049q.94,0,1.939.054a.068.068,0,0,0,.081-.077v-17.51a.481.481,0,0,1,.141-.34c1.534-1.534,2.4-2.442,2.825-2.781a.034.034,0,0,1,.056.029q-.021.256-.021.261,0,10.464,0,20.517a.082.082,0,0,0,.075.082l2.843.255q.107.01.106-.1v-24a.345.345,0,0,1,.1-.246l2.812-2.809q.1-.1.1.04V480.1a.04.04,0,0,0,.039.044l2.419.355a.121.121,0,0,1,.115.133l0,3.089q0,.124-.123.11-4.5-.511-9.137-.725-1.658-.076-3.39-.133-.773-.025-1.644-.028c-1.793-.008-3.548-.029-5.313.033l-2.683.093q-.753.026-1.675.078-.965.055-1.928.118-2.879.186-6.216.555-.109.013-.109-.1l0-3.187a.033.033,0,0,1,.028-.033l2.448-.374a.065.065,0,0,0,.055-.065q0-13.4,0-26.849c0-.1-.029-.2-.034-.294s.025-.1.085-.038l2.8,2.8a.438.438,0,0,1,.129.311v23.689q0,.115.114.1,1.6-.171,2.858-.262a.11.11,0,0,0,.1-.11l0-20.471a.024.024,0,0,1,.014-.022.022.022,0,0,1,.025.005q1.431,1.425,2.781,2.781a.648.648,0,0,1,.134.52q-.006,8.516,0,17.056a.047.047,0,0,0,.055.053l2.954-.081A.049.049,0,0,0,444.126,479.2Z" transform="translate(-372.739 -271.623)" fill="#2d3d76"/>
    <path id="Path_10" data-name="Path 10" d="M60.557,801.2a101,101,0,0,1,22.605-7.331q.142-.028.142.116v2.851a.159.159,0,0,1-.137.157,142.2,142.2,0,0,0-27.5,6.656.012.012,0,0,1-.016-.007l-.009-.022a0,0,0,0,1,0-.008Q58.378,802.2,60.557,801.2Z" transform="translate(-30.182 -584.302)" fill="#2d3d76"/>
    <path id="Path_11" data-name="Path 11" d="M860.18,794.472a101.077,101.077,0,0,1,27.217,9.674.019.019,0,0,1,.009.027h0a.013.013,0,0,1-.018.008,143.811,143.811,0,0,0-26.524-6.515q-.327-.049-.587-.069a.191.191,0,0,1-.176-.19v-2.87C860.1,794.483,860.127,794.461,860.18,794.472Z" transform="translate(-767.226 -584.857)" fill="#2d3d76"/>
  </g>
</svg>
