<svg xmlns="http://www.w3.org/2000/svg" width="28.841" height="21.631" viewBox="0 0 28.841 21.631">
  <g id="menu" transform="translate(0 -58.025)">
    <g id="grip-solid-horizontal_1_" transform="translate(0 58.025)">
      <path id="Path_27680" data-name="Path 27680" d="M27.038,351.759H1.8a1.8,1.8,0,0,1,0-3.605H27.038a1.8,1.8,0,1,1,0,3.605Z" transform="translate(0 -330.128)" fill="#232158"/>
      <path id="Path_27681" data-name="Path 27681" d="M27.038,206.7H1.8a1.8,1.8,0,1,1,0-3.605H27.038a1.8,1.8,0,1,1,0,3.605Z" transform="translate(0 -194.077)" fill="#232158"/>
      <path id="Path_27682" data-name="Path 27682" d="M27.038,61.63H1.8a1.8,1.8,0,1,1,0-3.605H27.038a1.8,1.8,0,1,1,0,3.605Z" transform="translate(0 -58.025)" fill="#232158"/>
    </g>
  </g>
</svg>
