<svg xmlns="http://www.w3.org/2000/svg" width="59.653" height="62.472" viewBox="0 0 59.653 62.472">
  <g id="passport" transform="translate(-10.585)" style="mix-blend-mode: normal;isolation: isolate">
    <g id="Group_17" data-name="Group 17" transform="translate(16.976 17.863)">
      <g id="Group_16" data-name="Group 16" transform="translate(0)">
        <path id="Path_12" data-name="Path 12" d="M71.368,134.152a12.783,12.783,0,1,0,12.783,12.783A12.783,12.783,0,0,0,71.368,134.152Zm9.46,7.989H76.221a20.693,20.693,0,0,0-1.831-5.369A10.632,10.632,0,0,1,80.828,142.141Zm-6.264,4.794a22.649,22.649,0,0,1-.169,2.663H68.342a21.119,21.119,0,0,1,0-5.326H74.4A22.886,22.886,0,0,1,74.563,146.935Zm-3.506-10.621c.105,0,.2-.031.31-.031s.206.029.313.032a17.7,17.7,0,0,1,2.36,5.827H68.695A17.678,17.678,0,0,1,71.058,136.314Zm-2.712.459a20.756,20.756,0,0,0-1.83,5.369H61.908A10.634,10.634,0,0,1,68.346,136.772Zm-7.63,10.162a10.524,10.524,0,0,1,.378-2.663h5.1a25.134,25.134,0,0,0-.151,2.663A24.727,24.727,0,0,0,66.2,149.6h-5.1A10.524,10.524,0,0,1,60.715,146.935Zm1.192,4.794h4.614a21.124,21.124,0,0,0,1.822,5.368A10.633,10.633,0,0,1,61.908,151.728Zm9.77,5.828c-.105,0-.2.031-.309.031s-.2-.028-.31-.031a17.83,17.83,0,0,1-2.36-5.828h5.341A17.794,17.794,0,0,1,71.677,157.556Zm2.717-.46a21.064,21.064,0,0,0,1.821-5.368h4.613A10.635,10.635,0,0,1,74.394,157.1Zm2.147-7.5a24.832,24.832,0,0,0,.153-2.663,25.137,25.137,0,0,0-.15-2.663h5.1a9.566,9.566,0,0,1,0,5.326Z" transform="translate(-58.585 -134.152)" fill="#2d3d76"/>
      </g>
    </g>
    <g id="Group_19" data-name="Group 19" transform="translate(19.107 49.82)">
      <g id="Group_18" data-name="Group 18">
        <rect id="Rectangle_9" data-name="Rectangle 9" width="21.305" height="2.13" fill="#2d3d76"/>
      </g>
    </g>
    <g id="Group_21" data-name="Group 21" transform="translate(54.14 34.473)">
      <g id="Group_20" data-name="Group 20" transform="translate(0 0)">
        <rect id="Rectangle_10" data-name="Rectangle 10" width="4.261" height="2.13" transform="matrix(0.259, -0.966, 0.966, 0.259, 0, 4.116)" fill="#2d3d76"/>
      </g>
    </g>
    <g id="Group_23" data-name="Group 23" transform="translate(49.177 42.701)">
      <g id="Group_22" data-name="Group 22" transform="translate(0 0)">
        <rect id="Rectangle_11" data-name="Rectangle 11" width="14.913" height="2.13" transform="matrix(0.259, -0.966, 0.966, 0.259, 0, 14.404)" fill="#2d3d76"/>
      </g>
    </g>
    <g id="Group_25" data-name="Group 25" transform="translate(10.585)">
      <g id="Group_24" data-name="Group 24" transform="translate(0)">
        <path id="Path_13" data-name="Path 13" d="M67.079,6.763,42.384.146a4.256,4.256,0,0,0-5.218,3.013l-2.227,8.312H12.715a2.13,2.13,0,0,0-2.13,2.13V56.211a2.13,2.13,0,0,0,2.13,2.13H37.322l14.868,3.984a4.256,4.256,0,0,0,5.218-3.013L70.092,11.982A4.261,4.261,0,0,0,67.079,6.763ZM12.715,56.211V13.6H44.672a2.133,2.133,0,0,1,2.13,2.13V54.081a2.133,2.133,0,0,1-2.13,2.13ZM68.034,11.43,55.352,58.761a2.126,2.126,0,0,1-2.61,1.507l-7.429-1.991a4.25,4.25,0,0,0,3.62-4.2V37.191l1.091.292,1.1-4.116-2.058-.551-.136.509V16.4l2.174.583,2.52,8.237,1.764.473-.167-7.607,3.116.835,1.369,2.415,1.176.315-.2-3.363,1.856-2.811-1.176-.315L58.97,16.564l-3.117-.835,3.948-6.5-1.764-.473-6.3,5.874-3.323-.89a4.243,4.243,0,0,0-3.742-2.264H37.144l2.079-7.761A2.126,2.126,0,0,1,41.833,2.2L66.527,8.821a2.131,2.131,0,0,1,1.507,2.609Z" transform="translate(-10.585 0)" fill="#2d3d76"/>
      </g>
    </g>
    <g id="Group_27" data-name="Group 27" transform="translate(54.144 28.842)">
      <g id="Group_26" data-name="Group 26" transform="translate(0 0)">
        <rect id="Rectangle_12" data-name="Rectangle 12" width="2.13" height="2.094" transform="translate(0 2.06) rotate(-75.179)" fill="#2d3d76"/>
      </g>
    </g>
    <g id="Group_29" data-name="Group 29" transform="translate(58.187 29.916)">
      <g id="Group_28" data-name="Group 28" transform="translate(0 0)">
        <rect id="Rectangle_13" data-name="Rectangle 13" width="2.13" height="2.094" transform="translate(0 2.059) rotate(-75.179)" fill="#2d3d76"/>
      </g>
    </g>
    <g id="Group_31" data-name="Group 31" transform="translate(50.1 27.771)">
      <g id="Group_30" data-name="Group 30" transform="translate(0 0)">
        <rect id="Rectangle_14" data-name="Rectangle 14" width="2.13" height="2.094" transform="translate(0 2.059) rotate(-75.179)" fill="#2d3d76"/>
      </g>
    </g>
  </g>
</svg>
