<svg xmlns="http://www.w3.org/2000/svg" xmlns:xlink="http://www.w3.org/1999/xlink" width="264.163" height="429.373" viewBox="0 0 264.163 429.373">
  <defs>
    <clipPath id="clip-path">
      <rect id="Rectangle_1930" data-name="Rectangle 1930" width="264.163" height="429.373" fill="#e7e6ff"/>
    </clipPath>
    <clipPath id="clip-path-3">
      <rect id="Rectangle_1913" data-name="Rectangle 1913" width="133.618" height="155.656" fill="#e7e6ff"/>
    </clipPath>
    <clipPath id="clip-path-4">
      <rect id="Rectangle_1914" data-name="Rectangle 1914" width="51.861" height="50.263" fill="#e7e6ff"/>
    </clipPath>
    <clipPath id="clip-path-5">
      <rect id="Rectangle_1915" data-name="Rectangle 1915" width="149.652" height="166.294" fill="#e7e6ff"/>
    </clipPath>
    <clipPath id="clip-path-6">
      <rect id="Rectangle_1916" data-name="Rectangle 1916" width="65.636" height="50.948" fill="#e7e6ff"/>
    </clipPath>
    <clipPath id="clip-path-7">
      <rect id="Rectangle_1917" data-name="Rectangle 1917" width="80.879" height="93.764" fill="#e7e6ff"/>
    </clipPath>
    <clipPath id="clip-path-8">
      <rect id="Rectangle_1918" data-name="Rectangle 1918" width="32.104" height="31.155" fill="#e7e6ff"/>
    </clipPath>
    <clipPath id="clip-path-9">
      <rect id="Rectangle_1919" data-name="Rectangle 1919" width="96.904" height="107.51" fill="#e7e6ff"/>
    </clipPath>
    <clipPath id="clip-path-10">
      <rect id="Rectangle_1920" data-name="Rectangle 1920" width="45.879" height="44.927" fill="#e7e6ff"/>
    </clipPath>
    <clipPath id="clip-path-11">
      <rect id="Rectangle_1921" data-name="Rectangle 1921" width="136.327" height="158.838" fill="#e7e6ff"/>
    </clipPath>
    <clipPath id="clip-path-12">
      <rect id="Rectangle_1922" data-name="Rectangle 1922" width="52.877" height="51.245" fill="#e7e6ff"/>
    </clipPath>
    <clipPath id="clip-path-13">
      <rect id="Rectangle_1923" data-name="Rectangle 1923" width="153.502" height="169.953" fill="#e7e6ff"/>
    </clipPath>
    <clipPath id="clip-path-14">
      <rect id="Rectangle_1924" data-name="Rectangle 1924" width="67.632" height="52.508" fill="#e7e6ff"/>
    </clipPath>
    <clipPath id="clip-path-15">
      <rect id="Rectangle_1925" data-name="Rectangle 1925" width="75.094" height="86.977" fill="#e7e6ff"/>
    </clipPath>
    <clipPath id="clip-path-16">
      <rect id="Rectangle_1926" data-name="Rectangle 1926" width="90.52" height="100.205" fill="#e7e6ff"/>
    </clipPath>
    <clipPath id="clip-path-17">
      <rect id="Rectangle_1927" data-name="Rectangle 1927" width="43.193" height="42.315" fill="#e7e6ff"/>
    </clipPath>
    <clipPath id="clip-path-18">
      <rect id="Rectangle_1928" data-name="Rectangle 1928" width="29.936" height="29.057" fill="#e7e6ff"/>
    </clipPath>
  </defs>
  <g id="Group_20374" data-name="Group 20374" opacity="0.369">
    <g id="Group_20373" data-name="Group 20373" clip-path="url(#clip-path)">
      <g id="Group_20372" data-name="Group 20372">
        <g id="Group_20371" data-name="Group 20371" clip-path="url(#clip-path)">
          <g id="Group_20325" data-name="Group 20325" transform="translate(24.984 201.054)" style="mix-blend-mode: multiply;isolation: isolate">
            <g id="Group_20324" data-name="Group 20324">
              <g id="Group_20323" data-name="Group 20323" clip-path="url(#clip-path-3)">
                <path id="Path_27645" data-name="Path 27645" d="M59.677,281.734H58.285l-.188-1.378c-.625-4.577-1.225-8.567-1.754-12.086-2.424-16.132-3.425-22.81,1.512-30.572,5.082-7.985,12.134-13.009,18.953-17.868,7.2-5.13,14.646-10.434,19.739-19.291,4.891-8.5,4.642-17.894-.651-24.512-6.326-7.911-18.173-10.134-31.7-5.947a100.751,100.751,0,0,0-17.165,7.127c-11.3,5.744-12.123,4.473-25.866-16.825-1.421-2.2-2.988-4.629-4.727-7.3l-.772-1.185,1.083-.907c28.318-23.726,63-31.053,92.788-19.6,21.793,8.377,36.47,25.274,39.266,45.2,3.177,22.652-9.448,45.959-35.552,65.624C96.289,255,97.031,263.71,97.52,269.471c.241,2.824.467,5.492-1.467,7.6-3.244,3.531-12.083,4.664-36.376,4.664m17.333-116.92c8.967,0,16.53,3.161,21.377,9.222,6.13,7.666,6.484,18.43.925,28.093-5.443,9.46-13.174,14.971-20.653,20.3-6.873,4.9-13.365,9.522-18.112,16.983-4.3,6.755-3.414,12.644-1.049,28.385.477,3.172,1.011,6.728,1.569,10.747,21.1-.041,30.289-1.072,32.64-3.629.942-1.029.868-2.48.636-5.172-.55-6.462-1.381-16.227,16.99-30.08,25.137-18.937,37.322-41.181,34.313-62.634-2.63-18.76-16.556-34.711-37.25-42.667-28.307-10.884-61.3-4.084-88.508,18.171q2.153,3.318,3.958,6.122c6.554,10.156,10.164,15.751,12.874,17.6,2.1,1.432,3.8.684,8.868-1.891a103.554,103.554,0,0,1,17.666-7.331,46.7,46.7,0,0,1,13.757-2.221" transform="translate(-15.667 -126.078)" fill="#e7e6ff"/>
              </g>
            </g>
          </g>
          <g id="Group_20328" data-name="Group 20328" transform="translate(58.299 372.222)" style="mix-blend-mode: multiply;isolation: isolate">
            <g id="Group_20327" data-name="Group 20327">
              <g id="Group_20326" data-name="Group 20326" clip-path="url(#clip-path-4)">
                <path id="Path_27646" data-name="Path 27646" d="M62.412,283.679c-12.451,0-25.854-7.875-25.854-25.167,0-17.242,13.4-25.1,25.856-25.1,12.923,0,26.006,8.621,26.006,25.1,0,7.749-2.832,14.276-8.189,18.876a27.247,27.247,0,0,1-17.819,6.291m0-47.073c-10.917,0-22.667,6.855-22.667,21.906,0,15.1,11.75,21.978,22.665,21.978,10.991,0,22.818-6.878,22.818-21.978,0-15.051-11.828-21.906-22.817-21.906" transform="translate(-36.559 -233.415)" fill="#e7e6ff"/>
              </g>
            </g>
          </g>
          <g id="Group_20331" data-name="Group 20331" transform="translate(15.881 197.303)" style="mix-blend-mode: multiply;isolation: isolate">
            <g id="Group_20330" data-name="Group 20330">
              <g id="Group_20329" data-name="Group 20329" clip-path="url(#clip-path-5)">
                <path id="Path_27647" data-name="Path 27647" d="M47.825,249.179h-7.4l-1-7.334c-.593-4.347-1.164-8.162-1.67-11.542l-.07-.459c-2.536-16.878-3.81-25.349,2.513-35.285.472-.742.955-1.458,1.451-2.154l2.6,1.853q-.7.974-1.359,2.012c-5.682,8.93-4.467,17.009-2.049,33.1l.069.459c.51,3.4,1.083,7.222,1.679,11.584l.625,4.577h4.618c26.154,0,34.923-1.314,39.1-5.86a9.834,9.834,0,0,0,2.571-6.46l3.183.175a13,13,0,0,1-3.406,8.441c-5.03,5.476-13.552,6.894-41.449,6.894" transform="translate(5.288 -82.885)" fill="#e7e6ff"/>
                <path id="Path_27648" data-name="Path 27648" d="M74.225,173.085l-3.17-.349a14.542,14.542,0,0,0,.088-1.593,12.508,12.508,0,0,0-1.662-6.355c-2.794-4.83-8.96-7.369-16.534-6.851l-.217-3.181c8.862-.608,16.089,2.523,19.511,8.434a15.67,15.67,0,0,1,2.091,7.953,17.748,17.748,0,0,1-.107,1.942" transform="translate(15.476 -105.318)" fill="#e7e6ff"/>
                <path id="Path_27649" data-name="Path 27649" d="M42.237,188.462c-8.657,0-12.687-6.245-23.459-22.935l-.089-.137c-1.394-2.161-2.929-4.54-4.629-7.155l-4.1-6.3,5.762-4.827c13.684-11.466,28.562-19.332,44.225-23.381l.8,3.087c-15.2,3.929-29.656,11.581-42.973,22.739l-3.6,3.012,2.559,3.931c1.7,2.618,3.242,5,4.637,7.165l-1.25,1,1.34-.866c10.367,16.063,13.859,21.475,20.779,21.475a16.686,16.686,0,0,0,7.3-2.087l1.383,2.875a19.485,19.485,0,0,1-8.68,2.4" transform="translate(-9.959 -123.726)" fill="#e7e6ff"/>
                <path id="Path_27650" data-name="Path 27650" d="M93.332,211.4l-2.445-2.048c11.388-13.6,17.409-28.395,17.409-42.777a52.8,52.8,0,0,0-1.223-11.273l3.114-.681a55.949,55.949,0,0,1,1.3,11.954c0,15.14-6.278,30.64-18.154,44.825" transform="translate(38.167 -105.354)" fill="#e7e6ff"/>
              </g>
            </g>
          </g>
          <g id="Group_20334" data-name="Group 20334" transform="translate(51.413 378.425)" style="mix-blend-mode: multiply;isolation: isolate">
            <g id="Group_20333" data-name="Group 20333">
              <g id="Group_20332" data-name="Group 20332" clip-path="url(#clip-path-6)">
                <path id="Path_27651" data-name="Path 27651" d="M65.134,288.253h-.151c-16.27,0-32.742-11.01-32.742-32.053a34.541,34.541,0,0,1,1.7-10.922l3.027,1.006A31.341,31.341,0,0,0,35.43,256.2c0,18.949,14.867,28.864,29.553,28.864Zm29.331-17.025-2.843-1.443A29.74,29.74,0,0,0,94.687,256.2,28.36,28.36,0,0,0,89.5,239.177l2.582-1.872a31.476,31.476,0,0,1,5.792,18.9,32.88,32.88,0,0,1-3.411,15.028" transform="translate(-32.24 -237.305)" fill="#e7e6ff"/>
              </g>
            </g>
          </g>
          <g id="Group_20337" data-name="Group 20337" transform="translate(176.36 152.748)" style="mix-blend-mode: multiply;isolation: isolate">
            <g id="Group_20336" data-name="Group 20336">
              <g id="Group_20335" data-name="Group 20335" clip-path="url(#clip-path-7)">
                <path id="Path_27652" data-name="Path 27652" d="M137.591,189.55H136.2l-.188-1.379c-.372-2.717-.726-5.085-1.041-7.176-1.464-9.75-2.07-13.786.993-18.6,3.087-4.849,7.328-7.871,11.431-10.794,4.414-3.145,8.583-6.116,11.539-11.255,2.77-4.814,2.642-10.115-.33-13.834-3.586-4.484-10.365-5.722-18.135-3.319a59.346,59.346,0,0,0-10.094,4.192c-7.233,3.677-8.083,2.363-16.207-10.223-.842-1.308-1.772-2.748-2.8-4.334l-.772-1.185,1.083-.907c17-14.247,37.856-18.64,55.771-11.753,13.169,5.063,22.04,15.293,23.734,27.366,1.922,13.7-5.667,27.76-21.37,39.591-9.791,7.383-9.386,12.145-9.09,15.623.148,1.743.3,3.547-1.04,5.007-2.1,2.284-7.259,2.98-22.088,2.98m10.3-70.753c5.524,0,10.2,1.961,13.2,5.722,3.811,4.766,4.043,11.44.606,17.415-3.3,5.742-7.956,9.058-12.454,12.263-4.03,2.872-7.836,5.583-10.589,9.909-2.424,3.808-1.909,7.241-.531,16.414.262,1.74.552,3.673.856,5.837,8.433-.026,16.854-.317,18.35-1.946.375-.41.33-1.166.211-2.58-.317-3.738-.85-10,10.348-18.439,14.735-11.1,21.885-24.1,20.131-36.6-1.529-10.909-9.649-20.192-21.719-24.832-16.443-6.321-35.593-2.456-51.486,10.326q1.1,1.689,2.033,3.148c3.848,5.963,5.969,9.248,7.471,10.276.909.62,1.582.372,4.609-1.167a62.2,62.2,0,0,1,10.6-4.395,28.386,28.386,0,0,1,8.367-1.349" transform="translate(-110.594 -95.786)" fill="#e7e6ff"/>
              </g>
            </g>
          </g>
          <g id="Group_20340" data-name="Group 20340" transform="translate(196.359 254.431)" style="mix-blend-mode: multiply;isolation: isolate">
            <g id="Group_20339" data-name="Group 20339">
              <g id="Group_20338" data-name="Group 20338" clip-path="url(#clip-path-8)">
                <path id="Path_27653" data-name="Path 27653" d="M139.141,190.7c-7.954,0-16.007-5.358-16.007-15.6,0-10.212,8.053-15.556,16.007-15.556,8,0,16.1,5.344,16.1,15.556,0,10.239-8.1,15.6-16.1,15.6m0-27.964c-6.173,0-12.818,3.87-12.818,12.367,0,8.525,6.645,12.408,12.818,12.408,6.216,0,12.907-3.883,12.907-12.408,0-8.5-6.691-12.367-12.907-12.367" transform="translate(-123.134 -159.55)" fill="#e7e6ff"/>
              </g>
            </g>
          </g>
          <g id="Group_20343" data-name="Group 20343" transform="translate(167.259 145.889)" style="mix-blend-mode: multiply;isolation: isolate">
            <g id="Group_20342" data-name="Group 20342">
              <g id="Group_20341" data-name="Group 20341" clip-path="url(#clip-path-9)">
                <path id="Path_27654" data-name="Path 27654" d="M131.51,178.121h-7.4l-1-7.334c-.359-2.634-.7-4.937-1.008-6.974-1.548-10.292-2.472-16.441,1.976-23.432,3.806-5.982,8.817-9.552,13.241-12.7l1.523-1.091,1.866,2.587-1.534,1.1c-4.189,2.984-8.933,6.364-12.405,11.821-3.806,5.983-3.046,11.048-1.529,21.141.324,2.154.67,4.471,1.033,7.12l.625,4.577h4.618c14.791,0,21.506-.58,24.812-4.178,2.44-2.657,2.175-5.763,2-7.82-.281-3.327.064-6.522,7.158-12l1.946,2.526c-6.294,4.856-6.108,7.063-5.926,9.2.2,2.295.558,6.562-2.831,10.251-4.062,4.422-10.648,5.21-27.159,5.21" transform="translate(-95.411 -70.611)" fill="#e7e6ff"/>
                <path id="Path_27655" data-name="Path 27655" d="M141.3,123.932l-3.075-.845a6.026,6.026,0,0,0,.225-1.58,4.041,4.041,0,0,0-.52-2.057,3.915,3.915,0,0,0-1.116-1.214l1.856-2.593a7.074,7.074,0,0,1,2.02,2.209,7.2,7.2,0,0,1,.949,3.655,9.107,9.107,0,0,1-.34,2.425" transform="translate(-85.897 -77.119)" fill="#e7e6ff"/>
                <path id="Path_27656" data-name="Path 27656" d="M128.61,138.663c-7.018,0-10.094-4.766-16.832-15.207l-6.892-10.614,5.76-4.829c14.081-11.8,30.477-17.541,46.912-16.382l-.223,3.183c-15.621-1.1-31.2,4.381-44.64,15.644l-3.594,3.011,5.357,8.257c6.457,10.005,8.871,13.748,14.153,13.748,2.44,0,4.478-1.035,6.835-2.234a55.07,55.07,0,0,1,9.511-3.955,23.594,23.594,0,0,1,4.546-.957l.322,3.173a20.15,20.15,0,0,0-3.924.829,52.393,52.393,0,0,0-9.01,3.752c-2.494,1.268-5.074,2.58-8.28,2.58" transform="translate(-104.886 -91.485)" fill="#e7e6ff"/>
                <path id="Path_27657" data-name="Path 27657" d="M163.234,140.764l-2.784-1.555a37.75,37.75,0,0,0,5.108-18.493,33.527,33.527,0,0,0-.868-7.564l3.108-.719a36.737,36.737,0,0,1,.949,8.283,40.884,40.884,0,0,1-5.513,20.048" transform="translate(-71.843 -79.028)" fill="#e7e6ff"/>
              </g>
            </g>
          </g>
          <g id="Group_20346" data-name="Group 20346" transform="translate(189.471 247.545)" style="mix-blend-mode: multiply;isolation: isolate">
            <g id="Group_20345" data-name="Group 20345">
              <g id="Group_20344" data-name="Group 20344" clip-path="url(#clip-path-10)">
                <path id="Path_27658" data-name="Path 27658" d="M141.71,200.159c-11.376,0-22.895-7.723-22.895-22.485,0-14.735,11.518-22.443,22.895-22.443,11.142,0,22.984,7.867,22.984,22.443a22.3,22.3,0,0,1-3.17,11.794l-2.722-1.662a19.149,19.149,0,0,0,2.7-10.133c0-12.505-10.2-19.254-19.795-19.254-9.793,0-19.705,6.615-19.705,19.254,0,12.668,9.913,19.3,19.705,19.3Z" transform="translate(-118.815 -155.233)" fill="#e7e6ff"/>
              </g>
            </g>
          </g>
          <g id="Group_20349" data-name="Group 20349" transform="translate(71.074 3.738)" style="mix-blend-mode: multiply;isolation: isolate">
            <g id="Group_20348" data-name="Group 20348">
              <g id="Group_20347" data-name="Group 20347" clip-path="url(#clip-path-11)">
                <path id="Path_27659" data-name="Path 27659" d="M89.453,161.182H88.059l-.187-1.379c-.638-4.672-1.252-8.747-1.789-12.34-2.475-16.459-3.5-23.271,1.537-31.184C92.8,108.132,100,103,106.962,98.047c7.351-5.239,14.955-10.656,20.158-19.7,5-8.691,4.746-18.294-.667-25.06-6.466-8.087-18.58-10.362-32.4-6.082a103.007,103.007,0,0,0-17.527,7.278C65.022,60.33,64.182,59.03,50.163,37.311c-1.451-2.247-3.047-4.725-4.822-7.452l-.772-1.185,1.083-.907C74.549,3.553,109.944-3.928,140.344,7.76c22.236,8.547,37.212,25.788,40.06,46.118,3.245,23.112-9.641,46.893-36.279,66.962-17.329,13.068-16.573,21.97-16.071,27.859.246,2.877.475,5.593-1.488,7.733-3.306,3.6-12.324,4.751-37.113,4.751m17.7-119.293c9.144,0,16.854,3.221,21.794,9.4,6.25,7.816,6.61,18.792.944,28.644-5.553,9.651-13.443,15.274-21.077,20.71-7.018,5-13.647,9.726-18.5,17.348-4.4,6.907-3.492,12.922-1.076,29,.486,3.248,1.035,6.887,1.606,11,21.573-.043,30.965-1.1,33.373-3.717.973-1.059.9-2.547.659-5.3-.56-6.589-1.406-16.548,17.333-30.677,25.671-19.34,38.116-42.06,35.041-63.974-2.69-19.165-16.912-35.458-38.049-43.584C110.274-.381,76.577,6.567,48.789,29.31c1.472,2.266,2.816,4.353,4.054,6.27C59.54,45.955,63.225,51.669,66,53.565c2.151,1.472,3.9.708,9.085-1.93a105.833,105.833,0,0,1,18.028-7.481,47.656,47.656,0,0,1,14.038-2.266" transform="translate(-44.569 -2.344)" fill="#e7e6ff"/>
              </g>
            </g>
          </g>
          <g id="Group_20352" data-name="Group 20352" transform="translate(105.074 178.479)" style="mix-blend-mode: multiply;isolation: isolate">
            <g id="Group_20351" data-name="Group 20351">
              <g id="Group_20350" data-name="Group 20350" clip-path="url(#clip-path-12)">
                <path id="Path_27660" data-name="Path 27660" d="M92.251,163.167c-12.7,0-26.36-8.029-26.36-25.658,0-17.58,13.665-25.587,26.362-25.587,13.177,0,26.515,8.788,26.515,25.587,0,16.845-13.338,25.658-26.516,25.658m0-48.056c-11.161,0-23.172,7.009-23.172,22.4,0,15.438,12.011,22.469,23.171,22.469,11.236,0,23.327-7.031,23.327-22.469,0-15.389-12.091-22.4-23.325-22.4" transform="translate(-65.89 -111.922)" fill="#e7e6ff"/>
              </g>
            </g>
          </g>
          <g id="Group_20355" data-name="Group 20355" transform="translate(61.325)" style="mix-blend-mode: multiply;isolation: isolate">
            <g id="Group_20354" data-name="Group 20354">
              <g id="Group_20353" data-name="Group 20353" clip-path="url(#clip-path-13)">
                <path id="Path_27661" data-name="Path 27661" d="M77.487,127.823H69.659l-1.06-7.757c-.633-4.636-1.241-8.678-1.776-12.244-2.6-17.31-3.907-26,2.61-36.241.158-.246.317-.493.477-.737L72.572,72.6l-.447.691c-5.88,9.236-4.633,17.53-2.15,34.056.537,3.577,1.148,7.634,1.783,12.285l.684,5h5.044c26.829,0,35.845-1.37,40.2-6.106a9.993,9.993,0,0,0,2.52-5.057l3.134.588a13.092,13.092,0,0,1-3.3,6.626c-5.148,5.6-14.291,7.138-42.544,7.138" transform="translate(-22.855 42.13)" fill="#e7e6ff"/>
                <path id="Path_27662" data-name="Path 27662" d="M104.359,50.3l-3.167-.373a15.049,15.049,0,0,0,.1-1.738,12.481,12.481,0,0,0-1.654-6.334c-2.921-5.046-9.5-7.579-17.671-6.745l-.324-3.172c9.464-.973,17.189,2.158,20.755,8.319a15.623,15.623,0,0,1,2.083,7.932,17.95,17.95,0,0,1-.126,2.111" transform="translate(-12.771 18.889)" fill="#e7e6ff"/>
                <path id="Path_27663" data-name="Path 27663" d="M71.818,66.275c-9.008,0-13.148-6.417-24.215-23.566-1.446-2.241-3.041-4.712-4.81-7.433l-4.338-6.664,6.092-5.106C58.078,12.171,72.773,4.262,88.224,0l.847,3.075C74.064,7.213,59.772,14.911,46.6,25.951l-3.928,3.29,2.8,4.3c1.772,2.725,3.37,5.2,4.816,7.444C60.954,57.516,64.547,63.086,71.818,63.086A14.722,14.722,0,0,0,77.7,61.707l1.247,2.936a17.73,17.73,0,0,1-7.133,1.633" transform="translate(-38.456 -0.001)" fill="#e7e6ff"/>
                <path id="Path_27664" data-name="Path 27664" d="M123.667,90.212l-2.432-2.063c11.976-14.11,18.307-29.474,18.307-44.439a54.282,54.282,0,0,0-1.268-11.635l3.114-.686a57.383,57.383,0,0,1,1.343,12.32c0,15.73-6.592,31.811-19.064,46.5" transform="translate(10.771 18.666)" fill="#e7e6ff"/>
              </g>
            </g>
          </g>
          <g id="Group_20358" data-name="Group 20358" transform="translate(97.696 184.593)" style="mix-blend-mode: multiply;isolation: isolate">
            <g id="Group_20357" data-name="Group 20357">
              <g id="Group_20356" data-name="Group 20356" clip-path="url(#clip-path-14)">
                <path id="Path_27665" data-name="Path 27665" d="M95.16,168.262H95c-16.765,0-33.739-11.346-33.739-33.035a35.495,35.495,0,0,1,1.749-11.255l3.024,1.009a32.35,32.35,0,0,0-1.584,10.246c0,19.6,15.369,29.846,30.549,29.846Zm30.224-17.549-2.843-1.442a30.758,30.758,0,0,0,3.165-14.044,29.33,29.33,0,0,0-5.358-17.6l2.582-1.869a32.431,32.431,0,0,1,5.966,19.471,33.9,33.9,0,0,1-3.511,15.486" transform="translate(-61.264 -115.756)" fill="#e7e6ff"/>
              </g>
            </g>
          </g>
          <g id="Group_20361" data-name="Group 20361" transform="translate(8.76 55.399)" style="mix-blend-mode: multiply;isolation: isolate">
            <g id="Group_20360" data-name="Group 20360">
              <g id="Group_20359" data-name="Group 20359" clip-path="url(#clip-path-15)">
                <path id="Path_27666" data-name="Path 27666" d="M30.625,121.716H29.235l-.188-1.378c-.343-2.51-.673-4.7-.962-6.631-1.319-8.79-1.923-12.8.936-17.294s6.8-7.308,10.6-10.018c4.073-2.9,7.919-5.644,10.641-10.375,2.537-4.411,2.422-9.262-.3-12.663-3.283-4.108-9.507-5.24-16.645-3.03A54.846,54.846,0,0,0,24,64.2c-6.792,3.452-7.584,2.225-15.145-9.5-.78-1.209-1.639-2.543-2.6-4.012l-.77-1.183L6.576,48.6C22.338,35.389,41.673,31.315,58.283,37.7c12.225,4.7,20.458,14.2,22.032,25.413C82.1,75.834,75.062,88.88,60.5,99.851c-9.005,6.79-8.632,11.158-8.361,14.346.14,1.639.284,3.333-.992,4.723-1.969,2.143-6.763,2.8-20.522,2.8m9.53-65.688c5.144,0,9.5,1.831,12.3,5.337,3.556,4.449,3.776,10.673.571,16.245-3.07,5.336-7.383,8.41-11.557,11.381-3.717,2.649-7.229,5.152-9.763,9.133-2.22,3.486-1.745,6.651-.472,15.11.238,1.58.5,3.333.777,5.291,7.739-.025,15.435-.3,16.781-1.762.314-.341.271-1.057.164-2.295-.3-3.483-.793-9.311,9.621-17.163,13.595-10.243,20.19-22.227,18.576-33.743-1.41-10.05-8.894-18.6-20.018-22.879C42,34.86,24.368,38.407,9.716,50.148q.981,1.514,1.824,2.823c3.551,5.5,5.508,8.535,6.876,9.471.746.512,1.255.38,4.141-1.088a57.615,57.615,0,0,1,9.822-4.073,26.354,26.354,0,0,1,7.776-1.253" transform="translate(-5.493 -34.74)" fill="#e7e6ff"/>
              </g>
            </g>
          </g>
          <g id="Group_20364" data-name="Group 20364" transform="translate(0 48.8)" style="mix-blend-mode: multiply;isolation: isolate">
            <g id="Group_20363" data-name="Group 20363">
              <g id="Group_20362" data-name="Group 20362" clip-path="url(#clip-path-16)">
                <path id="Path_27667" data-name="Path 27667" d="M25.085,112.281H17.909l-.971-7.111c-.335-2.445-.657-4.583-.938-6.471-1.443-9.584-2.306-15.325,1.885-21.909,3.563-5.6,8.23-8.924,12.351-11.858,1.52-1.083,2.953-2.1,4.25-3.177l2.033,2.457c-1.384,1.145-2.866,2.2-4.432,3.315C28.2,70.295,23.8,73.43,20.577,78.5c-3.551,5.578-2.843,10.281-1.435,19.646.3,1.977.619,4.129.957,6.589l.595,4.353h4.392c13.725,0,19.962-.542,23.053-3.909,2.3-2.5,2.04-5.53,1.887-7.34-.273-3.21.07-6.08,7-11.308q1.294-.974,2.512-1.969l2.019,2.47q-1.265,1.036-2.61,2.046c-6.076,4.583-5.916,6.481-5.746,8.49s.533,6.234-2.714,9.769c-3.851,4.194-10.005,4.94-25.4,4.94" transform="translate(8.808 -12.076)" fill="#e7e6ff"/>
                <path id="Path_27668" data-name="Path 27668" d="M33.554,60.3,30.5,59.4a5.178,5.178,0,0,0,.23-1.478,3.378,3.378,0,0,0-.432-1.716l2.6-1.861c.061.091.116.185.171.281a6.507,6.507,0,0,1,.852,3.3,8.442,8.442,0,0,1-.36,2.384" transform="translate(18.015 -16.484)" fill="#e7e6ff"/>
                <path id="Path_27669" data-name="Path 27669" d="M22.443,75c-6.7,0-9.578-4.462-15.886-14.239l-.183-.284c-.727-1.127-1.521-2.36-2.4-3.7L0,50.658l5.585-4.68C17.589,35.919,31.356,30.6,45.4,30.6a54.179,54.179,0,0,1,7.7.549l-.456,3.156a51.08,51.08,0,0,0-7.246-.515c-13.282,0-26.339,5.06-37.762,14.631L4.213,51.288l2.433,3.74c.879,1.349,1.678,2.587,2.408,3.717l.182.284c6.4,9.917,8.457,12.778,13.207,12.778,2.29,0,4.188-.965,6.385-2.083a51.042,51.042,0,0,1,8.777-3.65,17.274,17.274,0,0,1,8.313-.727l-.63,3.127a14.215,14.215,0,0,0-6.739.646,48.368,48.368,0,0,0-8.276,3.448C27.926,73.762,25.5,75,22.443,75" transform="translate(0 -30.602)" fill="#e7e6ff"/>
                <path id="Path_27670" data-name="Path 27670" d="M55.191,74.867l-2.85-1.432A34.423,34.423,0,0,0,56.2,57.925a31.3,31.3,0,0,0-.813-7.058l3.1-.722a34.46,34.46,0,0,1,.9,7.78,37.567,37.567,0,0,1-4.2,16.942" transform="translate(31.126 -18.98)" fill="#e7e6ff"/>
              </g>
            </g>
          </g>
          <g id="Group_20367" data-name="Group 20367" transform="translate(20.67 153.137)" style="mix-blend-mode: multiply;isolation: isolate">
            <g id="Group_20366" data-name="Group 20366">
              <g id="Group_20365" data-name="Group 20365" clip-path="url(#clip-path-17)">
                <path id="Path_27671" data-name="Path 27671" d="M34.517,138.345c-10.711,0-21.555-7.273-21.555-21.176,0-13.878,10.844-21.139,21.555-21.139,10.488,0,21.638,7.409,21.638,21.139a20.345,20.345,0,0,1-8.075,16.695l-1.918-2.548a16.959,16.959,0,0,0,6.8-14.146c0-11.659-9.506-17.95-18.449-17.95-9.126,0-18.366,6.165-18.366,17.95,0,11.809,9.24,17.986,18.366,17.986Z" transform="translate(-12.962 -96.03)" fill="#e7e6ff"/>
              </g>
            </g>
          </g>
          <g id="Group_20370" data-name="Group 20370" transform="translate(27.298 159.766)" style="mix-blend-mode: multiply;isolation: isolate">
            <g id="Group_20369" data-name="Group 20369">
              <g id="Group_20368" data-name="Group 20368" clip-path="url(#clip-path-18)">
                <path id="Path_27672" data-name="Path 27672" d="M32.046,129.245c-7.418,0-14.928-5-14.928-14.548,0-9.525,7.509-14.51,14.928-14.51,7.458,0,15.008,4.985,15.008,14.51,0,9.551-7.549,14.548-15.008,14.548m0-25.869c-5.653,0-11.738,3.542-11.738,11.321,0,7.8,6.085,11.359,11.738,11.359,5.691,0,11.818-3.555,11.818-11.359a10.748,10.748,0,0,0-3.636-8.468,12.525,12.525,0,0,0-8.182-2.853" transform="translate(-17.118 -100.187)" fill="#e7e6ff"/>
              </g>
            </g>
          </g>
        </g>
      </g>
    </g>
  </g>
</svg>
