<svg xmlns="http://www.w3.org/2000/svg" width="51.559" height="58.917" viewBox="0 0 51.559 58.917">
  <g id="torah" transform="translate(-31.984 0.15)" style="mix-blend-mode: normal;isolation: isolate">
    <path id="Path_32" data-name="Path 32" d="M81.676,0H33.851a1.717,1.717,0,0,0-1.717,1.717V56.9a1.717,1.717,0,0,0,1.717,1.717H81.676A1.717,1.717,0,0,0,83.393,56.9V1.717A1.717,1.717,0,0,0,81.676,0ZM39.492,55.182H35.569V3.435h3.923Zm40.467,0H42.926V3.435H79.958Z" fill="#2d3d76" stroke="#fcfdff" stroke-width="0.3"/>
    <path id="Path_33" data-name="Path 33" d="M193.013,115.579a1.717,1.717,0,0,0,1.487.859h5.38l2.69,4.66a1.724,1.724,0,0,0,2.974,0l2.69-4.66h5.381a1.717,1.717,0,0,0,1.487-2.576l-2.69-4.66,2.69-4.66a1.725,1.725,0,0,0-1.487-2.576h-5.381l-2.69-4.66a1.724,1.724,0,0,0-2.974,0l-2.69,4.66H194.5a1.725,1.725,0,0,0-1.487,2.576l2.69,4.66-2.69,4.66A1.717,1.717,0,0,0,193.013,115.579Zm6.16-7.235-1.7-2.942h3.4a1.717,1.717,0,0,0,1.487-.859l1.7-2.942,1.7,2.942a1.717,1.717,0,0,0,1.487.859h3.4l-1.7,2.942a1.717,1.717,0,0,0,0,1.717l1.7,2.942h-3.4a1.717,1.717,0,0,0-1.487.859l-1.7,2.942-1.7-2.942a1.717,1.717,0,0,0-1.487-.859h-3.4l1.7-2.942A1.717,1.717,0,0,0,199.173,108.343Z" transform="translate(-142.255 -85.412)" fill="#2d3d76" stroke="#fcfdff" stroke-width="0.3"/>
    <path id="Path_34" data-name="Path 34" d="M178.535,389.035h22.073a1.717,1.717,0,0,0,0-3.435H178.535a1.717,1.717,0,0,0,0,3.435Z" transform="translate(-128.129 -341.454)" fill="#2d3d76" stroke="#fcfdff" stroke-width="0.3"/>
  </g>
</svg>
