<svg xmlns="http://www.w3.org/2000/svg" width="57.624" height="57.626" viewBox="0 0 57.624 57.626">
  <g id="student" transform="translate(0.5 0.502)">
    <g id="Group_33" data-name="Group 33" transform="translate(21.961 28.027)">
      <g id="Group_32" data-name="Group 32">
        <path id="Path_14" data-name="Path 14" d="M210.79,253.912a1.659,1.659,0,0,0-2.346,0,4.977,4.977,0,0,1-7.038,0,1.659,1.659,0,1,0-2.346,2.346,8.295,8.295,0,0,0,11.73,0A1.659,1.659,0,0,0,210.79,253.912Z" transform="translate(-198.574 -253.427)" fill="#2d3d76" stroke="#fcfdff" stroke-width="1"/>
      </g>
    </g>
    <g id="Group_35" data-name="Group 35" transform="translate(0 0)">
      <g id="Group_34" data-name="Group 34">
        <path id="Path_15" data-name="Path 15" d="M46.671,28.312V31.63a1.659,1.659,0,0,0,1.659,1.659h6.636a1.659,1.659,0,0,0,1.659-1.659V28.312a4.985,4.985,0,0,0-3.318-4.691V8.4s0-.008,0-.012A1.661,1.661,0,0,0,52.12,6.815l-.012,0L28.773.065a1.659,1.659,0,0,0-.924,0L4.624,6.812A1.659,1.659,0,0,0,4.632,10l8.75,2.5V24.994a14.884,14.884,0,0,0,4.455,10.627L7.641,39.3A11.649,11.649,0,0,0,0,50.212v4.753a1.659,1.659,0,0,0,1.659,1.659H54.965a1.659,1.659,0,0,0,1.659-1.659v-4.7a11.635,11.635,0,0,0-7.73-10.944L38.42,35.636q.276-.289.538-.6c2.8-3.286,4.284-7.907,4.284-13.364V12.52L49.988,10.6V23.62A4.985,4.985,0,0,0,46.671,28.312ZM26.653,53.306H3.318V50.212a8.319,8.319,0,0,1,5.454-7.793L17.145,39.4l9.508,9.508Zm-6.06-15.152L21,38.007a14.837,14.837,0,0,0,7.312,1.917,13.922,13.922,0,0,0,7.028-1.855l.574.2-7.6,7.6Zm18.791,1.34,8.4,2.96a8.31,8.31,0,0,1,5.518,7.816v3.037H29.971v-4.4Zm.541-17.817c0,8.93-4.667,14.93-11.612,14.93A11.626,11.626,0,0,1,16.7,24.994V20.917A31.514,31.514,0,0,0,28.312,23.15a31.519,31.519,0,0,0,11.612-2.233Zm0-4.364a28.175,28.175,0,0,1-23.225,0V13.448l11.157,3.188a1.659,1.659,0,0,0,.91,0l11.159-3.173Zm-11.611-4L11.08,8.392,28.313,3.386,45.629,8.392C44.386,8.745,29.352,13.018,28.313,13.315ZM51.647,26.653a1.661,1.661,0,0,1,1.659,1.659v1.659H49.988V28.312A1.661,1.661,0,0,1,51.647,26.653Z" transform="translate(0 0)" fill="#2d3d76" stroke="#fcfdff" stroke-width="1"/>
      </g>
    </g>
  </g>
</svg>
