<svg xmlns="http://www.w3.org/2000/svg" width="66.662" height="59.063" viewBox="0 0 66.662 59.063">
  <g id="suitcase" transform="translate(0.15 -29.164)" style="mix-blend-mode: normal;isolation: isolate">
    <g id="Group_36" data-name="Group 36" transform="translate(0 29.314)">
      <path id="Path_35" data-name="Path 35" d="M56.124,40.24H46.511V34.233a4.95,4.95,0,0,0-4.97-4.919H24.821a4.95,4.95,0,0,0-4.97,4.919V40.24H10.238A10.249,10.249,0,0,0,0,50.478V79.714a8.372,8.372,0,0,0,8.363,8.363H58a8.372,8.372,0,0,0,8.363-8.363V50.478A10.25,10.25,0,0,0,56.124,40.24ZM23.751,34.233a1.022,1.022,0,0,1,1.07-1.019h16.72a1.022,1.022,0,0,1,1.07,1.019V40.24H23.751Zm38.71,45.481A4.467,4.467,0,0,1,58,84.177H8.363A4.467,4.467,0,0,1,3.9,79.714V61.5a8.432,8.432,0,0,0,1.995.915c.037.011.075.022.113.031L25.875,67.3v1.6a4.572,4.572,0,0,0,4.567,4.567H35.92A4.572,4.572,0,0,0,40.486,68.9V67.3l19.867-4.855q.057-.014.113-.031a8.435,8.435,0,0,0,1.995-.915V79.714ZM29.776,68.9V63.4a.667.667,0,0,1,.667-.667H35.92a.667.667,0,0,1,.667.667v5.5a.667.667,0,0,1-.667.667H30.442A.667.667,0,0,1,29.776,68.9Zm32.686-14.5a4.452,4.452,0,0,1-3.1,4.264L40.484,63.286a4.571,4.571,0,0,0-4.564-4.451H30.442a4.572,4.572,0,0,0-4.564,4.451L7,58.672a4.452,4.452,0,0,1-3.1-4.264v-3.93a6.345,6.345,0,0,1,6.338-6.338H56.124a6.345,6.345,0,0,1,6.338,6.338v3.93Z" transform="translate(0 -29.314)" fill="#2d3d76" stroke="#fcfdff" stroke-width="0.3"/>
    </g>
  </g>
</svg>
